<svg xmlns="http://www.w3.org/2000/svg" id="logo-svg" width="200" height="200" viewBox="0 0 200 200" style="overflow: visible;"><defs><linearGradient id="gradient" x1="0%" y1="0%" x2="100%" y2="100%"><stop offset="0%" style="stop-color: rgb(248, 185, 13); stop-opacity: 1;"/><stop offset="100%" style="stop-color: rgb(140, 57, 44); stop-opacity: 1;"/></linearGradient><filter id="shadow" x="-100%" y="-100%" width="300%" height="300%" filterUnits="objectBoundingBox"><feDropShadow dx="0" dy="6" stdDeviation="8" flood-color="rgb(0,0,0)" flood-opacity="0.07"/><feDropShadow dx="0" dy="12" stdDeviation="16" flood-color="rgb(0,0,0)" flood-opacity="0.05"/><feDropShadow dx="0" dy="18" stdDeviation="24" flood-color="rgb(0,0,0)" flood-opacity="0.03"/></filter></defs><rect x="0" y="0" width="200" height="200" fill="#f8b90d" rx="50" ry="50" filter="url(#shadow)"/><g transform="translate(36 36)"><svg xmlns="http://www.w3.org/2000/svg" width="128" height="128" viewBox="0 0 24 24" fill="#FFFFFF" stroke="#FFFFFF" stroke-width="2" stroke-linecap="round" stroke-linejoin="round" class="lucide lucide-crown" fill-opacity="0"><path d="M11.562 3.266a.5.5 0 0 1 .876 0L15.39 8.87a1 1 0 0 0 1.516.294L21.183 5.5a.5.5 0 0 1 .798.519l-2.834 10.246a1 1 0 0 1-.956.734H5.81a1 1 0 0 1-.957-.734L2.02 6.02a.5.5 0 0 1 .798-.519l4.276 3.664a1 1 0 0 0 1.516-.294z"/><path d="M5 21h14"/></svg></g></svg>